<?xml version="1.0" encoding="iso-8859-1"?>
<!-- Generator: Adobe Illustrator 19.0.0, SVG Export Plug-In . SVG Version: 6.00 Build 0)  -->
<svg version="1.1" id="Capa_1" xmlns="http://www.w3.org/2000/svg" xmlns:xlink="http://www.w3.org/1999/xlink" x="0px" y="0px"
	 viewBox="0 0 480.061 480.061" style="enable-background:new 0 0 480.061 480.061;" xml:space="preserve">
<linearGradient id="SVGID_1_" gradientUnits="userSpaceOnUse" x1="-22.3286" y1="558.9495" x2="-22.3286" y2="618.4105" gradientTransform="matrix(8 0 0 -8 454.6825 4941.4097)">
	<stop  offset="0" style="stop-color:#006DF0"/>
	<stop  offset="1" style="stop-color:#00E7F0"/>
</linearGradient>
<path style="fill:url(#SVGID_1_);" d="M360.045,216.046h-280c-4.418,0-8-3.582-8-8s3.582-8,8-8h280
	c57.438,0.005,104.004-46.554,104.008-103.992c0.003-31.066-13.883-60.507-37.856-80.264c-3.409-2.812-3.892-7.855-1.08-11.264
	c2.812-3.409,7.855-3.892,11.264-1.08l0,0c51.142,42.152,58.429,117.782,16.277,168.923
	C429.86,200.029,395.89,216.049,360.045,216.046L360.045,216.046z"/>
<g>
	
		<linearGradient id="SVGID_2_" gradientUnits="userSpaceOnUse" x1="-21.3309" y1="558.9495" x2="-21.3309" y2="618.4105" gradientTransform="matrix(8 0 0 -8 454.6825 4941.4097)">
		<stop  offset="0" style="stop-color:#006DF0"/>
		<stop  offset="1" style="stop-color:#00E7F0"/>
	</linearGradient>
	<path style="fill:url(#SVGID_2_);" d="M360.045,184.046h-232c-4.418,0-8-3.582-8-8s3.582-8,8-8h232
		c39.764-0.017,71.986-32.266,71.97-72.03c-0.006-13.79-3.972-27.288-11.426-38.89c-2.433-3.688-1.415-8.65,2.273-11.083
		c3.688-2.433,8.65-1.415,11.083,2.273c0.028,0.043,0.056,0.086,0.084,0.13c26.289,40.877,14.462,95.326-26.415,121.615
		C393.426,179.185,376.914,184.04,360.045,184.046z"/>
	
		<linearGradient id="SVGID_3_" gradientUnits="userSpaceOnUse" x1="-26.8325" y1="558.9495" x2="-26.8325" y2="618.4105" gradientTransform="matrix(8 0 0 -8 454.6825 4941.4097)">
		<stop  offset="0" style="stop-color:#006DF0"/>
		<stop  offset="1" style="stop-color:#00E7F0"/>
	</linearGradient>
	<path style="fill:url(#SVGID_3_);" d="M20.789,371.31c-2.72,0.002-5.254-1.378-6.728-3.664
		c-26.336-40.81-14.603-95.243,26.207-121.579c14.869-9.595,32.287-14.482,49.977-14.021h381.8c4.418,0,8,3.582,8,8s-3.582,8-8,8
		h-381.8c-39.718-1.26-72.937,29.917-74.197,69.635c-0.463,14.605,3.532,29.006,11.453,41.285c2.399,3.71,1.336,8.663-2.374,11.062
		C23.835,370.863,22.329,371.308,20.789,371.31L20.789,371.31z"/>
	
		<linearGradient id="SVGID_4_" gradientUnits="userSpaceOnUse" x1="-15.3296" y1="558.9495" x2="-15.3296" y2="618.4105" gradientTransform="matrix(8 0 0 -8 454.6825 4941.4097)">
		<stop  offset="0" style="stop-color:#006DF0"/>
		<stop  offset="1" style="stop-color:#00E7F0"/>
	</linearGradient>
	<path style="fill:url(#SVGID_4_);" d="M408.045,88.046c-4.418,0-8,3.582-8,8c-0.026,22.08-17.92,39.974-40,40h-104
		c-4.418,0-8,3.582-8,8s3.582,8,8,8h104c30.913-0.035,55.965-25.087,56-56C416.045,91.627,412.464,88.046,408.045,88.046z"/>
	
		<linearGradient id="SVGID_5_" gradientUnits="userSpaceOnUse" x1="-12.8296" y1="558.9495" x2="-12.8296" y2="618.4105" gradientTransform="matrix(8 0 0 -8 454.6825 4941.4097)">
		<stop  offset="0" style="stop-color:#006DF0"/>
		<stop  offset="1" style="stop-color:#00E7F0"/>
	</linearGradient>
	<path style="fill:url(#SVGID_5_);" d="M352.045,120.046c-17.673,0-32-14.327-32-32s14.327-32,32-32s32,14.327,32,32
		c0,4.418-3.582,8-8,8s-8-3.582-8-8c0-8.837-7.163-16-16-16s-16,7.163-16,16s7.163,16,16,16c4.418,0,8,3.582,8,8
		C360.045,116.464,356.464,120.046,352.045,120.046z"/>
	
		<linearGradient id="SVGID_6_" gradientUnits="userSpaceOnUse" x1="-29.8289" y1="558.9495" x2="-29.8289" y2="618.4105" gradientTransform="matrix(8 0 0 -8 454.6825 4941.4097)">
		<stop  offset="0" style="stop-color:#006DF0"/>
		<stop  offset="1" style="stop-color:#00E7F0"/>
	</linearGradient>
	<path style="fill:url(#SVGID_6_);" d="M311.293,478.445c-4.418,0.001-8.001-3.58-8.001-7.999c0-2.387,1.065-4.649,2.905-6.169
		c44.311-36.546,50.605-102.094,14.059-146.405c-19.752-23.948-49.169-37.821-80.211-37.827h-160c-4.418,0-8-3.582-8-8s3.582-8,8-8
		h160c66.274-0.007,120.006,53.713,120.013,119.987c0.004,35.845-16.017,69.815-43.677,92.613
		C314.945,477.817,313.147,478.453,311.293,478.445L311.293,478.445z"/>
	
		<linearGradient id="SVGID_7_" gradientUnits="userSpaceOnUse" x1="-24.8316" y1="558.9495" x2="-24.8316" y2="618.4105" gradientTransform="matrix(8 0 0 -8 454.6825 4941.4097)">
		<stop  offset="0" style="stop-color:#006DF0"/>
		<stop  offset="1" style="stop-color:#00E7F0"/>
	</linearGradient>
	<path style="fill:url(#SVGID_7_);" d="M307.301,435.31c-4.418-0.003-7.997-3.588-7.994-8.006c0.001-1.539,0.446-3.046,1.282-4.338
		c21.495-33.454,11.8-77.999-21.654-99.494c-11.602-7.454-25.1-11.42-38.89-11.426h-48c-4.418,0-8-3.582-8-8s3.582-8,8-8h48
		c48.601,0.017,87.986,39.43,87.969,88.031c-0.006,16.869-4.86,33.381-13.985,47.569
		C312.555,433.931,310.021,435.311,307.301,435.31z"/>
	
		<linearGradient id="SVGID_8_" gradientUnits="userSpaceOnUse" x1="-26.8296" y1="558.9495" x2="-26.8296" y2="618.4105" gradientTransform="matrix(8 0 0 -8 454.6825 4941.4097)">
		<stop  offset="0" style="stop-color:#006DF0"/>
		<stop  offset="1" style="stop-color:#00E7F0"/>
	</linearGradient>
	<path style="fill:url(#SVGID_8_);" d="M240.045,328.046h-48c-4.418,0-8,3.582-8,8s3.582,8,8,8h48c22.08,0.026,39.974,17.92,40,40
		c0,4.418,3.582,8,8,8s8-3.582,8-8C296.01,353.132,270.959,328.081,240.045,328.046z"/>
	
		<linearGradient id="SVGID_9_" gradientUnits="userSpaceOnUse" x1="-27.8296" y1="558.9495" x2="-27.8296" y2="618.4105" gradientTransform="matrix(8 0 0 -8 454.6825 4941.4097)">
		<stop  offset="0" style="stop-color:#006DF0"/>
		<stop  offset="1" style="stop-color:#00E7F0"/>
	</linearGradient>
	<path style="fill:url(#SVGID_9_);" d="M232.045,424.046c-17.673,0-32-14.327-32-32s14.327-32,32-32c4.418,0,8,3.582,8,8
		s-3.582,8-8,8c-8.837,0-16,7.163-16,16s7.163,16,16,16c8.837,0,16-7.163,16-16c0-4.418,3.582-8,8-8s8,3.582,8,8
		C264.045,409.719,249.718,424.046,232.045,424.046z"/>
	
		<linearGradient id="SVGID_10_" gradientUnits="userSpaceOnUse" x1="-30.8296" y1="558.9495" x2="-30.8296" y2="618.4105" gradientTransform="matrix(8 0 0 -8 454.6825 4941.4097)">
		<stop  offset="0" style="stop-color:#006DF0"/>
		<stop  offset="1" style="stop-color:#00E7F0"/>
	</linearGradient>
	<path style="fill:url(#SVGID_10_);" d="M224.045,152.046h-32c-4.418,0-8-3.582-8-8s3.582-8,8-8h32c4.418,0,8,3.582,8,8
		S228.464,152.046,224.045,152.046z"/>
	
		<linearGradient id="SVGID_11_" gradientUnits="userSpaceOnUse" x1="-38.8296" y1="558.9495" x2="-38.8296" y2="618.4105" gradientTransform="matrix(8 0 0 -8 454.6825 4941.4097)">
		<stop  offset="0" style="stop-color:#006DF0"/>
		<stop  offset="1" style="stop-color:#00E7F0"/>
	</linearGradient>
	<path style="fill:url(#SVGID_11_);" d="M160.045,312.046h-32c-4.418,0-8-3.582-8-8s3.582-8,8-8h32c4.418,0,8,3.582,8,8
		S164.464,312.046,160.045,312.046z"/>
</g>
<g>
</g>
<g>
</g>
<g>
</g>
<g>
</g>
<g>
</g>
<g>
</g>
<g>
</g>
<g>
</g>
<g>
</g>
<g>
</g>
<g>
</g>
<g>
</g>
<g>
</g>
<g>
</g>
<g>
</g>
</svg>
